hun:
2011.09.24.-i Kazincbarcikai Rock Párbaj DVD (tehetségkutató rock együtteseknek)

fellépő zenekarok:
Towards Eternity
Royal Dogs
Serious
SkyJack
Crazy Bike Machine
Wake On Burial
Sick Stick
StormRaizer
Frantic
Xplode
D!sgrace


eng:
RockDuel in Kazincbarcika, Hungary, on 09.24.2011. (talent show for rock bands)

bands attending:
Towards Eternity
Royal Dogs
Serious
SkyJack
Crazy Bike Machine
Wake On Burial
Sick Stick
StormRaizer
Frantic
Xplode
D!sgrace

video info:
Format                           : AVI
Format/Info                      : Audio Video Interleave
File size                        : 1 015 MiB
Duration                         : 2h 33mn
Overall bit rate                 : 927 Kbps
Writing library                  : AVI OpenDML bitRipper plugin release

Video
ID                               : 0
Format                           : MPEG-4 Visual
Format profile                   : Advanced Simple@L5
Format settings, BVOP            : 1
Format settings, QPel            : No
Format settings, GMC             : No warppoints
Format settings, Matrix          : Default (H.263)
Muxing mode                      : Packed bitstream
Codec ID                         : DX50
Codec ID/Hint                    : DivX 5
Duration                         : 2h 33mn
Bit rate                         : 729 Kbps
Width                            : 720 pixels
Height                           : 576 pixels
Display aspect ratio             : 5:4
Frame rate                       : 25.000 fps
Standard                         : PAL
Color space                      : YUV
Chroma subsampling               : 4:2:0
Bit depth                        : 8 bits
Scan type                        : Progressive
Compression mode                 : Lossy
Bits/(Pixel*Frame)               : 0.070
Stream size                      : 798 MiB (79%)
Writing library                  : XviD 58

Audio
ID                               : 1
Format                           : MPEG Audio
Format version                   : Version 1
Format profile                   : Layer 3
Mode                             : Joint stereo
Mode extension                   : MS Stereo
Codec ID                         : 55
Codec ID/Hint                    : MP3
Duration                         : 2h 33mn
Bit rate mode                    : Constant
Bit rate                         : 192 Kbps
Channel(s)                       : 2 channels
Sampling rate                    : 48.0 KHz
Compression mode                 : Lossy
Stream size                      : 210 MiB (21%)
Alignment                        : Split accross interleaves
Interleave, duration             : 200 ms (5.00 video frames)
Writing library                  : LAME3.98.2